<svg width="14" height="14" viewBox="0 0 14 14" fill="none" xmlns="http://www.w3.org/2000/svg">
<path d="M11.0833 6.41666H2.91667C2.27233 6.41666 1.75 6.93899 1.75 7.58332V11.6667C1.75 12.311 2.27233 12.8333 2.91667 12.8333H11.0833C11.7277 12.8333 12.25 12.311 12.25 11.6667V7.58332C12.25 6.93899 11.7277 6.41666 11.0833 6.41666Z" stroke="#A0A0A0" stroke-width="1.16667" stroke-linecap="round" stroke-linejoin="round"/>
<path d="M4.08301 6.41666V4.08332C4.08301 3.30977 4.3903 2.56791 4.93728 2.02093C5.48426 1.47395 6.22613 1.16666 6.99967 1.16666C7.77322 1.16666 8.51509 1.47395 9.06207 2.02093C9.60905 2.56791 9.91634 3.30977 9.91634 4.08332V6.41666" stroke="#A0A0A0" stroke-width="1.16667" stroke-linecap="round" stroke-linejoin="round"/>
</svg>
