<svg width="18" height="18" viewBox="0 0 18 18" fill="none" xmlns="http://www.w3.org/2000/svg">
<path d="M15.7392 9.36449C15.6689 10.6666 15.223 11.9205 14.4553 12.9745C13.6876 14.0286 12.631 14.8378 11.4132 15.3041C10.1955 15.7705 8.86871 15.8742 7.59329 15.6026C6.31788 15.3311 5.14843 14.6959 4.22631 13.7739C3.30419 12.8518 2.66888 11.6825 2.39717 10.4071C2.12547 9.13169 2.22901 7.8049 2.69527 6.58711C3.16153 5.36931 3.97055 4.31264 5.02454 3.54482C6.07853 2.77701 7.33236 2.33092 8.63446 2.26049C8.93821 2.24399 9.09721 2.60549 8.93596 2.86274C8.39663 3.72566 8.16569 4.7459 8.28083 5.75696C8.39598 6.76802 8.8504 7.7102 9.56995 8.42975C10.2895 9.1493 11.2317 9.60373 12.2427 9.71887C13.2538 9.83401 14.274 9.60308 15.137 9.06374C15.395 8.90249 15.7557 9.06074 15.7392 9.36449Z" stroke="#4A90E2" stroke-width="1.5" stroke-linecap="round" stroke-linejoin="round"/>
</svg>
