<svg width="22" height="22" viewBox="0 0 22 22" fill="none" xmlns="http://www.w3.org/2000/svg">
<path d="M10.9999 11.9167C11.5062 11.9167 11.9166 11.5063 11.9166 11C11.9166 10.4937 11.5062 10.0833 10.9999 10.0833C10.4937 10.0833 10.0833 10.4937 10.0833 11C10.0833 11.5063 10.4937 11.9167 10.9999 11.9167Z" stroke="black" stroke-width="1.83333" stroke-linecap="round" stroke-linejoin="round"/>
<path d="M10.9999 5.5C11.5062 5.5 11.9166 5.08959 11.9166 4.58333C11.9166 4.07707 11.5062 3.66666 10.9999 3.66666C10.4937 3.66666 10.0833 4.07707 10.0833 4.58333C10.0833 5.08959 10.4937 5.5 10.9999 5.5Z" stroke="black" stroke-width="1.83333" stroke-linecap="round" stroke-linejoin="round"/>
<path d="M10.9999 18.3333C11.5062 18.3333 11.9166 17.9229 11.9166 17.4167C11.9166 16.9104 11.5062 16.5 10.9999 16.5C10.4937 16.5 10.0833 16.9104 10.0833 17.4167C10.0833 17.9229 10.4937 18.3333 10.9999 18.3333Z" stroke="black" stroke-width="1.83333" stroke-linecap="round" stroke-linejoin="round"/>
</svg>
