<svg width="24" height="24" viewBox="0 0 24 24" fill="none" xmlns="http://www.w3.org/2000/svg">
<path d="M11.0174 2.81401C11.0603 2.58462 11.182 2.37743 11.3615 2.22833C11.5411 2.07924 11.7671 1.99762 12.0004 1.99762C12.2338 1.99762 12.4598 2.07924 12.6393 2.22833C12.8189 2.37743 12.9406 2.58462 12.9834 2.81401L14.0344 8.37201C14.1091 8.76716 14.3011 9.13063 14.5855 9.41498C14.8698 9.69934 15.2333 9.89137 15.6284 9.96601L21.1864 11.017C21.4158 11.0599 21.623 11.1816 21.7721 11.3611C21.9212 11.5406 22.0028 11.7667 22.0028 12C22.0028 12.2334 21.9212 12.4594 21.7721 12.6389C21.623 12.8184 21.4158 12.9402 21.1864 12.983L15.6284 14.034C15.2333 14.1087 14.8698 14.3007 14.5855 14.585C14.3011 14.8694 14.1091 15.2329 14.0344 15.628L12.9834 21.186C12.9406 21.4154 12.8189 21.6226 12.6393 21.7717C12.4598 21.9208 12.2338 22.0024 12.0004 22.0024C11.7671 22.0024 11.5411 21.9208 11.3615 21.7717C11.182 21.6226 11.0603 21.4154 11.0174 21.186L9.96644 15.628C9.8918 15.2329 9.69977 14.8694 9.41541 14.585C9.13106 14.3007 8.76759 14.1087 8.37244 14.034L2.81444 12.983C2.58504 12.9402 2.37786 12.8184 2.22876 12.6389C2.07966 12.4594 1.99805 12.2334 1.99805 12C1.99805 11.7667 2.07966 11.5406 2.22876 11.3611C2.37786 11.1816 2.58504 11.0599 2.81444 11.017L8.37244 9.96601C8.76759 9.89137 9.13106 9.69934 9.41541 9.41498C9.69977 9.13063 9.8918 8.76716 9.96644 8.37201L11.0174 2.81401Z" stroke="#4A90E2" stroke-width="2.5" stroke-linecap="round" stroke-linejoin="round"/>
<path d="M20 2V6" stroke="#4A90E2" stroke-width="2.5" stroke-linecap="round" stroke-linejoin="round"/>
<path d="M22 4H18" stroke="#4A90E2" stroke-width="2.5" stroke-linecap="round" stroke-linejoin="round"/>
<path d="M4 22C5.10457 22 6 21.1046 6 20C6 18.8954 5.10457 18 4 18C2.89543 18 2 18.8954 2 20C2 21.1046 2.89543 22 4 22Z" stroke="#4A90E2" stroke-width="2.5" stroke-linecap="round" stroke-linejoin="round"/>
</svg>
