<svg width="16" height="16" viewBox="0 0 16 16" fill="none" xmlns="http://www.w3.org/2000/svg">
<path d="M4.66699 6.66666V14.6667" stroke="#A0A0A0" stroke-width="1.33333" stroke-linecap="round" stroke-linejoin="round"/>
<path d="M9.99967 3.92L9.33301 6.66667H13.2197C13.4267 6.66667 13.6308 6.71486 13.816 6.80743C14.0011 6.9 14.1621 7.03441 14.2863 7.2C14.4105 7.3656 14.4945 7.55783 14.5315 7.76149C14.5685 7.96514 14.5576 8.17462 14.4997 8.37334L12.9463 13.7067C12.8656 13.9836 12.6971 14.2269 12.4663 14.4C12.2355 14.5731 11.9548 14.6667 11.6663 14.6667H2.66634C2.31272 14.6667 1.97358 14.5262 1.72353 14.2761C1.47348 14.0261 1.33301 13.687 1.33301 13.3333V8C1.33301 7.64638 1.47348 7.30724 1.72353 7.05719C1.97358 6.80715 2.31272 6.66667 2.66634 6.66667H4.50634C4.7544 6.66654 4.9975 6.59721 5.20831 6.46648C5.41912 6.33576 5.58929 6.14881 5.69967 5.92667L7.99967 1.33334C8.31406 1.33723 8.6235 1.41212 8.90488 1.5524C9.18625 1.69268 9.43229 1.89474 9.62461 2.14347C9.81693 2.3922 9.95055 2.68118 10.0155 2.9888C10.0804 3.29643 10.075 3.61476 9.99967 3.92Z" stroke="#A0A0A0" stroke-width="1.33333" stroke-linecap="round" stroke-linejoin="round"/>
</svg>
