<svg width="14" height="13" viewBox="0 0 14 13" fill="none" xmlns="http://www.w3.org/2000/svg">
<path d="M7.00018 12.0682L1.15927 6.22727C0.693359 5.76136 0.382753 5.2197 0.22745 4.60227C0.0759352 3.98485 0.0778291 3.37121 0.233132 2.76136C0.388435 2.14773 0.697147 1.61364 1.15927 1.15909C1.63275 0.693182 2.17253 0.38447 2.77859 0.232955C3.38844 0.0776517 3.99639 0.0776517 4.60245 0.232955C5.2123 0.388258 5.75397 0.69697 6.22745 1.15909L7.00018 1.90909L7.77291 1.15909C8.25018 0.69697 8.79184 0.388258 9.39791 0.232955C10.004 0.0776517 10.61 0.0776517 11.2161 0.232955C11.8259 0.38447 12.3676 0.693182 12.8411 1.15909C13.3032 1.61364 13.6119 2.14773 13.7672 2.76136C13.9225 3.37121 13.9225 3.98485 13.7672 4.60227C13.6157 5.2197 13.307 5.76136 12.8411 6.22727L7.00018 12.0682Z" fill="#666666"/>
</svg>
